# xmcd CD database file
#
# Track frame offsets:
#	150
#	32792
#	72534
#	104194
#	139099
#	177222
#
# Disc length: 2670 seconds
#
# Revision: 0
# Processed by: cddbd v1.5.1PL0 Copyright (c) Steve Scherf et al.
# Submitted via: CDex 1.51
#
DISCID=5a0a6c06
DTITLE=Keith Jarrett - Standards, Vol. 2
DYEAR=1985
DGENRE=Jazz
TTITLE0=So tender
TTITLE1=Moon and sand
TTITLE2=In love in vain
TTITLE3=Never let me go
TTITLE4=If I should lose you
TTITLE5=I fall in love too easily
EXTD=YEAR: 1985
EXTT0=
EXTT1=
EXTT2=
EXTT3=
EXTT4=
EXTT5=
PLAYORDER=
